<svg width="24" height="24" viewBox="0 0 24 24" fill="none" xmlns="http://www.w3.org/2000/svg">
<path fill-rule="evenodd" clip-rule="evenodd" d="M14.9604 5.39972C14.6675 5.10683 14.1926 5.10683 13.8997 5.39972C13.6068 5.69262 13.6068 6.16749 13.8997 6.46038L18.6894 11.2501H3.5C3.08579 11.2501 2.75 11.5858 2.75 12.0001C2.75 12.4143 3.08579 12.7501 3.5 12.7501H18.6894L13.8997 17.5397C13.6068 17.8326 13.6068 18.3075 13.8997 18.6004C14.1926 18.8933 14.6675 18.8933 14.9604 18.6004L21.0304 12.5304C21.171 12.3897 21.2501 12.199 21.2501 12.0001C21.2501 11.8011 21.171 11.6104 21.0304 11.4697L14.9604 5.39972Z" fill="white"/>
</svg>
