<svg width="25" height="24" viewBox="0 0 25 24" fill="none" xmlns="http://www.w3.org/2000/svg">
<path d="M18.3 13C18.0239 13 17.8026 13.2248 17.7761 13.4996C17.5123 16.2306 15.1041 18.1 12.5 18.1C9.89593 18.1 7.48771 16.2306 7.2239 13.4996C7.19735 13.2248 6.97614 13 6.7 13H6C5.72386 13 5.49795 13.2246 5.51958 13.4999C5.76958 16.6824 8.38172 19.2542 11.5 19.72V22.5C11.5 22.7761 11.7239 23 12 23H13C13.2761 23 13.5 22.7761 13.5 22.5V19.72C16.6187 19.2636 19.2312 16.6916 19.4805 13.4999C19.502 13.2246 19.2761 13 19 13H18.3Z" fill="black" fill-opacity="0.64"/>
<rect x="9.6" y="3.1" width="5.8" height="11.8" rx="1.9" stroke="black" stroke-opacity="0.64" stroke-width="1.8"/>
</svg>
